<svg width="368.882" height="101.1" viewBox="0 0 368.882 101.1" xmlns="http://www.w3.org/2000/svg">
<g id="svgGroup" stroke-linecap="round" fill-rule="evenodd" font-size="9pt" stroke="#000" stroke-width="0.25mm" fill="rgb(0, 255, 255)" style="stroke:#000;stroke-width:0.25mm;">
<path d="M 7 57.1 L 8.6 70.4 A 66.736 66.736 0 0 0 13.072 71.314 Q 15.214 71.671 17.095 71.811 A 31.214 31.214 0 0 0 19.4 71.9 A 33.27 33.27 0 0 0 25.22 71.372 A 37.729 37.729 0 0 0 26.6 71.1 Q 30.3 70.3 33.05 67.8 Q 35.8 65.3 35.8 61 A 21.634 21.634 0 0 0 35.664 58.496 Q 35.405 56.275 34.65 54.7 Q 33.5 52.3 29.35 49.45 A 38.747 38.747 0 0 0 26.648 47.772 Q 22.725 45.531 16.4 42.8 A 58.383 58.383 0 0 1 11.528 40.377 Q 6.316 37.449 3.75 34.25 A 15.01 15.01 0 0 1 0.952 28.501 Q 0.207 25.594 0.3 22 A 16.924 16.924 0 0 1 1.477 15.766 Q 3.113 11.744 7.021 9.048 A 19.522 19.522 0 0 1 7.7 8.6 Q 14.585 4.262 24.761 4.015 A 51.124 51.124 0 0 1 26 4 A 50.139 50.139 0 0 1 36.48 5.058 A 42.153 42.153 0 0 1 43 7 A 31.528 31.528 0 0 1 43.024 8.244 Q 43.024 15.354 39.9 23.9 Q 39.594 23.976 38.996 23.994 A 13.216 13.216 0 0 1 38.6 24 A 8.372 8.372 0 0 1 36.687 23.788 A 7.136 7.136 0 0 1 35.5 23.4 L 34.4 10.1 Q 29.9 8.8 25.4 8.8 A 25.273 25.273 0 0 0 20.404 9.268 Q 17.223 9.909 14.705 11.429 A 15.744 15.744 0 0 0 14.35 11.65 A 9.43 9.43 0 0 0 9.963 18.393 A 13.528 13.528 0 0 0 9.8 20.3 Q 9.7 24.9 12.45 27.8 Q 15.106 30.601 23.498 34.427 A 121.493 121.493 0 0 0 24.1 34.7 Q 30.6 37.6 34.2 39.55 Q 37.8 41.5 40.75 44.15 A 16.364 16.364 0 0 1 43.853 47.853 A 14.612 14.612 0 0 1 45 50.2 Q 46.219 53.387 46.295 57.63 A 31.769 31.769 0 0 1 46.3 58.2 A 18.668 18.668 0 0 1 44.982 64.928 Q 43.112 69.492 38.6 72.5 A 29.706 29.706 0 0 1 25.533 77.225 A 38.09 38.09 0 0 1 20.9 77.5 A 84.01 84.01 0 0 1 13.149 77.167 Q 5.385 76.445 0.346 74.16 A 23.621 23.621 0 0 1 0 74 Q 0 65.1 2.6 56.6 A 2.369 2.369 0 0 0 2.728 56.596 Q 2.855 56.589 3.03 56.57 A 10.977 10.977 0 0 0 3.2 56.55 A 7.511 7.511 0 0 1 3.486 56.52 Q 3.628 56.507 3.754 56.503 A 4.039 4.039 0 0 1 3.9 56.5 A 9.065 9.065 0 0 1 5.355 56.611 Q 6.174 56.744 6.86 57.038 A 5.499 5.499 0 0 1 7 57.1 Z M 156.6 25.7 L 156.6 70.8 Q 158 71.8 163.6 72.8 Q 163.9 74.6 163.1 76.3 A 39.308 39.308 0 0 1 158.717 76.864 A 51.407 51.407 0 0 1 154.9 77 A 28.908 28.908 0 0 1 152.253 76.885 Q 150.951 76.765 149.815 76.52 A 16.422 16.422 0 0 1 149.3 76.4 L 147.6 69 L 147.1 69 A 48.752 48.752 0 0 1 143.479 71.975 Q 141.631 73.34 139.882 74.306 A 23.228 23.228 0 0 1 137.75 75.35 A 23.443 23.443 0 0 1 130.199 77.129 A 27.914 27.914 0 0 1 128.2 77.2 Q 114.946 77.2 114.705 62.742 A 32.433 32.433 0 0 1 114.7 62.2 L 114.7 31.6 L 107.4 30.8 Q 107.1 28.8 107.9 27.3 A 112.567 112.567 0 0 0 115.631 25.869 A 139.928 139.928 0 0 0 120.9 24.6 A 7.997 7.997 0 0 1 122.464 24.86 Q 123.189 25.051 123.974 25.376 A 15.512 15.512 0 0 1 124.7 25.7 L 124.7 60.7 A 21.291 21.291 0 0 0 124.844 63.275 Q 125.175 65.984 126.27 67.496 A 4.749 4.749 0 0 0 127 68.3 Q 129.191 70.205 133.649 70.205 A 21.677 21.677 0 0 0 134.1 70.2 A 11.925 11.925 0 0 0 137.455 69.693 Q 139.032 69.232 140.7 68.35 A 21.75 21.75 0 0 0 144.971 65.423 A 19.178 19.178 0 0 0 146.6 63.8 L 146.6 31.6 L 139.3 30.8 Q 139 28.8 139.8 27.3 A 112.567 112.567 0 0 0 147.531 25.869 A 139.928 139.928 0 0 0 152.8 24.6 A 7.997 7.997 0 0 1 154.364 24.86 Q 155.089 25.051 155.874 25.376 A 15.512 15.512 0 0 1 156.6 25.7 Z M 316 29.3 L 287.1 71.1 L 308.5 71.1 L 311.3 59.7 A 8.82 8.82 0 0 1 313.587 59.237 Q 314.534 59.168 315.567 59.274 A 13.356 13.356 0 0 1 315.8 59.3 A 40.08 40.08 0 0 1 316.213 62.459 Q 316.356 63.994 316.428 65.754 A 92.126 92.126 0 0 1 316.5 69.5 A 275.345 275.345 0 0 1 316.494 71.419 Q 316.475 74.068 316.402 75.564 A 39.66 39.66 0 0 1 316.4 75.6 L 277 75.6 Q 276.3 74.4 276 72.2 L 303.5 30.1 L 285 30.1 L 283.2 40.5 A 8.82 8.82 0 0 1 280.913 40.963 Q 279.966 41.032 278.933 40.926 A 13.356 13.356 0 0 1 278.7 40.9 Q 277.4 33.1 277.1 25.6 L 314.6 25.6 A 8.37 8.37 0 0 1 315.885 28.648 A 10.012 10.012 0 0 1 316 29.3 Z M 264.7 1.1 L 264.7 70.8 Q 266.4 72.3 271.7 72.8 A 2.073 2.073 0 0 0 271.706 72.957 Q 271.712 73.032 271.723 73.118 A 4.728 4.728 0 0 0 271.75 73.3 A 4.666 4.666 0 0 1 271.778 73.494 Q 271.789 73.582 271.795 73.658 A 2.029 2.029 0 0 1 271.8 73.8 Q 271.8 75.1 271.2 76.3 A 32.618 32.618 0 0 1 268.125 76.753 Q 265.709 77 262.8 77 Q 259.5 77 257.1 76.4 Q 256.4 75.3 255.9 74 A 11.345 11.345 0 0 1 255.392 72.258 A 14.196 14.196 0 0 1 255.2 71.1 L 254.7 71.1 A 30.076 30.076 0 0 1 251.365 73.78 Q 249.216 75.256 247.05 76.1 Q 243.2 77.6 239.2 77.6 Q 234.9 77.6 231.15 75.6 A 20.139 20.139 0 0 1 224.823 70.27 A 23.033 23.033 0 0 1 224.65 70.05 Q 221.9 66.5 220.35 61.75 A 31.803 31.803 0 0 1 218.874 53.87 A 37.374 37.374 0 0 1 218.8 51.5 Q 218.8 45 220.55 39.85 A 26.14 26.14 0 0 1 223.175 34.281 A 22.358 22.358 0 0 1 225.6 31.1 Q 228.9 27.5 233.55 25.6 A 25.43 25.43 0 0 1 240.148 23.925 A 32.096 32.096 0 0 1 244 23.7 Q 249.7 23.7 254.7 26.2 L 255 26.2 L 255 7 L 246.7 6.2 Q 246.624 5.971 246.606 5.507 A 7.948 7.948 0 0 1 246.6 5.2 Q 246.6 3.9 247.2 2.7 A 115.568 115.568 0 0 0 256.675 0.994 A 98.314 98.314 0 0 0 260.7 0 Q 262.8 0.2 264.7 1.1 Z M 99.5 29.1 L 99.5 95.6 L 106.2 97.6 Q 106.5 99.5 105.7 101.1 A 508.838 508.838 0 0 0 102.013 100.882 Q 97.442 100.63 95.037 100.603 A 48.664 48.664 0 0 0 94.5 100.6 A 97.709 97.709 0 0 0 92.213 100.631 Q 88.275 100.725 81.3 101.1 A 9.048 9.048 0 0 1 81.191 99.97 Q 81.152 98.712 81.5 97.6 Q 87.288 96.702 89.491 95.604 A 6.931 6.931 0 0 0 89.5 95.6 L 89.5 71.9 Q 83.2 77.6 74.5 77.6 Q 67.2 77.5 62.5 73.65 Q 57.8 69.8 55.7 63.8 Q 53.6 57.8 53.6 51.6 Q 53.6 40.846 58.28 33.941 A 22.807 22.807 0 0 1 60.65 31 A 22.977 22.977 0 0 1 72.043 24.556 Q 75.659 23.66 79.928 23.604 A 43.618 43.618 0 0 1 80.5 23.6 A 35.746 35.746 0 0 1 97.787 28.117 A 42.945 42.945 0 0 1 99.5 29.1 Z M 206.7 43.9 L 206.7 70.7 Q 207.937 71.36 211.893 72.291 A 113.054 113.054 0 0 0 213.7 72.7 Q 214 74.6 213.2 76.2 Q 209.616 76.878 205.093 76.899 A 62.487 62.487 0 0 1 204.8 76.9 Q 201.5 76.9 199.1 76.3 L 197.7 71.1 L 197.3 71.1 A 19.818 19.818 0 0 1 182.953 77.294 A 25.168 25.168 0 0 1 182.4 77.3 Q 176 77.3 172.1 73.95 A 10.942 10.942 0 0 1 168.4 67.183 A 15.987 15.987 0 0 1 168.2 64.6 Q 168.297 48.585 195.242 48.585 A 94.849 94.849 0 0 1 196.9 48.6 L 197 39.8 A 29.737 29.737 0 0 0 197.001 39.544 Q 197.001 28.199 188.2 28.1 A 32.059 32.059 0 0 0 183.495 28.43 A 23.808 23.808 0 0 0 178.8 29.6 L 177.5 40.2 A 8.888 8.888 0 0 1 174.851 40.684 Q 174.088 40.71 173.279 40.621 A 12.265 12.265 0 0 1 173.1 40.6 A 67.153 67.153 0 0 1 171.883 35.466 Q 171.095 31.387 171.095 28.095 A 26.762 26.762 0 0 1 171.1 27.6 A 38.731 38.731 0 0 1 180.822 24.479 Q 185.214 23.655 190.224 23.603 A 65.314 65.314 0 0 1 190.9 23.6 A 31.955 31.955 0 0 1 191.272 23.598 Q 196.313 23.598 199.592 25.219 A 10.218 10.218 0 0 1 203.1 28 A 12.531 12.531 0 0 1 204.998 31.486 Q 206.319 35.037 206.615 40.551 A 62.599 62.599 0 0 1 206.7 43.9 Z M 361.8 43.9 L 361.8 70.7 Q 363.037 71.36 366.993 72.291 A 113.054 113.054 0 0 0 368.8 72.7 Q 369.1 74.6 368.3 76.2 Q 364.716 76.878 360.193 76.899 A 62.487 62.487 0 0 1 359.9 76.9 Q 356.6 76.9 354.2 76.3 L 352.8 71.1 L 352.4 71.1 A 19.818 19.818 0 0 1 338.053 77.294 A 25.168 25.168 0 0 1 337.5 77.3 Q 331.1 77.3 327.2 73.95 A 10.942 10.942 0 0 1 323.5 67.183 A 15.987 15.987 0 0 1 323.3 64.6 Q 323.397 48.585 350.342 48.585 A 94.849 94.849 0 0 1 352 48.6 L 352.1 39.8 A 29.737 29.737 0 0 0 352.101 39.544 Q 352.101 28.199 343.3 28.1 A 32.059 32.059 0 0 0 338.595 28.43 A 23.808 23.808 0 0 0 333.9 29.6 L 332.6 40.2 A 8.888 8.888 0 0 1 329.951 40.684 Q 329.188 40.71 328.379 40.621 A 12.265 12.265 0 0 1 328.2 40.6 A 67.153 67.153 0 0 1 326.983 35.466 Q 326.195 31.387 326.195 28.095 A 26.762 26.762 0 0 1 326.2 27.6 A 38.731 38.731 0 0 1 335.922 24.479 Q 340.314 23.655 345.324 23.603 A 65.314 65.314 0 0 1 346 23.6 A 31.955 31.955 0 0 1 346.372 23.598 Q 351.413 23.598 354.692 25.219 A 10.218 10.218 0 0 1 358.2 28 A 12.531 12.531 0 0 1 360.098 31.486 Q 361.419 35.037 361.715 40.551 A 62.599 62.599 0 0 1 361.8 43.9 Z M 254.7 66.5 L 254.7 31.7 A 13.241 13.241 0 0 0 248.888 28.913 A 19.169 19.169 0 0 0 244.8 28.5 A 15.749 15.749 0 0 0 239.84 29.241 A 12.433 12.433 0 0 0 233.3 34.3 A 20.164 20.164 0 0 0 230.775 39.788 Q 230.002 42.363 229.663 45.462 A 47.419 47.419 0 0 0 229.4 50.6 A 50.402 50.402 0 0 0 229.708 56.38 Q 230.439 62.688 232.9 66.45 A 11.243 11.243 0 0 0 241.029 71.642 A 15.76 15.76 0 0 0 243.3 71.8 A 14.608 14.608 0 0 0 252.776 68.301 A 20.487 20.487 0 0 0 254.7 66.5 Z M 89.5 66.1 L 89.5 31.8 A 14.298 14.298 0 0 0 81.272 28.552 Q 80.568 28.497 79.836 28.497 A 19.807 19.807 0 0 0 79.5 28.5 A 15.168 15.168 0 0 0 74.577 29.258 A 12.207 12.207 0 0 0 68.1 34.5 A 21.124 21.124 0 0 0 65.729 39.903 Q 64.97 42.501 64.614 45.64 A 53.031 53.031 0 0 0 64.3 51.6 A 45.944 45.944 0 0 0 64.474 55.685 A 36.267 36.267 0 0 0 64.85 58.6 Q 65.4 61.8 66.8 64.85 Q 68.2 67.9 70.9 69.75 A 10.386 10.386 0 0 0 74.961 71.381 A 14.146 14.146 0 0 0 77.5 71.6 A 15.32 15.32 0 0 0 82.969 70.562 A 18.648 18.648 0 0 0 84.5 69.9 A 19.926 19.926 0 0 0 86.582 68.741 Q 88.492 67.511 89.5 66.1 Z M 196.9 66.1 L 196.9 52.6 Q 188.897 52.6 184.577 54.079 A 12.095 12.095 0 0 0 182.4 55.05 A 8.073 8.073 0 0 0 178.537 60.438 A 13.841 13.841 0 0 0 178.2 63.6 Q 178.2 66.538 179.36 68.451 A 6.314 6.314 0 0 0 180.35 69.7 A 7.154 7.154 0 0 0 183.839 71.552 A 10.615 10.615 0 0 0 186.2 71.8 Q 188.828 71.8 191.764 70.302 A 18.725 18.725 0 0 0 192.15 70.1 Q 194.979 68.573 196.557 66.563 A 9.946 9.946 0 0 0 196.9 66.1 Z M 352 66.1 L 352 52.6 Q 343.997 52.6 339.677 54.079 A 12.095 12.095 0 0 0 337.5 55.05 A 8.073 8.073 0 0 0 333.637 60.438 A 13.841 13.841 0 0 0 333.3 63.6 Q 333.3 66.538 334.46 68.451 A 6.314 6.314 0 0 0 335.45 69.7 A 7.154 7.154 0 0 0 338.939 71.552 A 10.615 10.615 0 0 0 341.3 71.8 Q 343.928 71.8 346.864 70.302 A 18.725 18.725 0 0 0 347.25 70.1 Q 350.079 68.573 351.657 66.563 A 9.946 9.946 0 0 0 352 66.1 Z" vector-effect="non-scaling-stroke"/>
</g>
</svg>